<?xml version="1.0" standalone="no"?>
<!DOCTYPE svg PUBLIC "-//W3C//DTD SVG 20010904//EN"
 "http://www.w3.org/TR/2001/REC-SVG-20010904/DTD/svg10.dtd">
<svg version="1.0" xmlns="http://www.w3.org/2000/svg"
 width="4280.000000pt" height="2093.000000pt" viewBox="0 0 4280.000000 2093.000000"
 preserveAspectRatio="xMidYMid meet">

<g transform="translate(0.000000,2093.000000) scale(0.100000,-0.100000)"
fill="#000000" stroke="none">
<path d="M14570 13285 l0 -7175 -7115 0 -7115 0 0 -250 0 -250 7115 0 7115 0
0 -2500 0 -2500 250 0 250 0 0 665 0 665 12980 0 12980 0 0 -670 0 -670 250 0
250 0 0 2505 0 2505 555 0 555 0 0 250 0 250 -7360 0 -7360 0 0 7175 0 7175
-250 0 -250 0 0 -7175 0 -7175 -6175 0 -6175 0 0 7175 0 7175 -250 0 -250 0 0
-7175z m22696 -8049 c193 -33 316 -94 379 -187 58 -86 70 -143 69 -339 0 -133
-4 -185 -16 -215 l-15 -40 -291 -3 -292 -2 6 102 c15 245 -42 312 -266 313
-128 0 -170 -8 -210 -41 -47 -40 -63 -110 -58 -269 3 -116 6 -137 24 -162 48
-65 121 -94 704 -277 345 -109 429 -186 461 -422 16 -123 7 -437 -16 -534 -57
-246 -194 -362 -490 -416 -120 -22 -580 -31 -737 -15 -403 42 -544 164 -580
498 -11 113 1 267 27 329 l14 34 288 0 288 0 0 -143 c1 -266 46 -317 280 -317
168 0 237 33 265 128 15 49 24 245 16 316 -16 122 -95 168 -557 319 -522 172
-588 222 -619 469 -16 129 -13 405 6 495 49 239 214 355 559 393 131 14 655 5
761 -14z m-17351 -45 c139 -31 249 -85 313 -156 102 -111 136 -234 136 -485
-1 -308 -47 -416 -209 -486 -36 -16 -65 -32 -65 -35 0 -4 29 -17 64 -29 74
-24 144 -66 174 -104 33 -42 60 -125 73 -222 16 -121 7 -439 -15 -519 -56
-204 -181 -314 -416 -367 -91 -21 -122 -22 -817 -25 l-723 -4 0 1231 0 1231
693 -4 c672 -3 695 -4 792 -26z m1977 -943 c3 -883 5 -976 20 -1003 24 -44 58
-72 103 -84 50 -14 278 -14 326 -1 45 13 84 54 98 105 7 28 11 339 11 998 l0
957 350 0 350 0 0 -924 c0 -573 -4 -963 -11 -1027 -19 -189 -48 -267 -131
-355 -92 -97 -180 -139 -365 -171 -80 -14 -164 -17 -468 -18 -463 0 -575 14
-731 90 -85 41 -174 131 -211 211 -58 127 -56 101 -60 1192 l-4 1002 360 0
360 0 3 -972z m2838 -258 l0 -1230 -360 0 -360 0 0 1230 0 1230 360 0 360 0 0
-1230z m1600 215 l0 -1015 420 0 420 0 0 -215 0 -215 -770 0 -770 0 0 1230 0
1230 350 0 350 0 0 -1015z m2966 1004 c234 -22 367 -71 468 -173 95 -95 138
-202 167 -411 6 -44 13 -272 16 -507 10 -777 -23 -1003 -170 -1164 -87 -96
-166 -135 -347 -170 -73 -14 -185 -17 -782 -21 l-698 -4 0 1230 0 1231 618 0
c361 0 664 -4 728 -11z m3104 -194 l0 -205 -460 0 -460 0 0 -300 0 -300 455 0
455 0 0 -195 0 -195 -455 0 -455 0 0 -315 0 -315 460 0 460 0 0 -215 0 -215
-810 0 -810 0 0 1230 0 1230 810 0 810 0 0 -205z m2260 191 c302 -41 441 -144
507 -376 26 -92 26 -490 0 -595 -44 -174 -116 -254 -265 -294 -23 -7 -42 -15
-42 -20 0 -4 17 -17 39 -29 125 -71 182 -212 252 -622 49 -291 72 -397 99
-456 11 -26 20 -48 20 -50 0 -2 -168 -4 -373 -4 l-373 0 -17 34 c-23 49 -61
239 -92 461 -31 215 -63 357 -97 418 -37 66 -67 78 -223 84 l-135 6 0 -502 0
-501 -350 0 -350 0 0 1230 0 1230 648 0 c499 0 671 -4 752 -14z"/>
<path d="M19130 4499 l0 -331 193 4 c175 3 196 6 234 26 28 15 50 36 63 62 29
56 43 177 36 300 -9 167 -36 232 -109 259 -17 7 -109 11 -223 11 l-194 0 0
-331z"/>
<path d="M19130 3499 l0 -350 213 3 c247 4 275 11 315 85 35 64 49 205 35 348
-25 241 -58 265 -375 265 l-188 0 0 -351z"/>
<path d="M28650 3994 l0 -817 208 6 c261 7 295 17 333 102 37 82 43 197 44
740 0 554 -5 622 -48 700 -40 72 -69 79 -319 83 l-218 4 0 -818z"/>
<path d="M33960 4470 l0 -350 163 0 c246 0 295 22 334 148 23 73 26 365 4 425
-19 54 -66 105 -109 117 -20 5 -117 10 -214 10 l-178 0 0 -350z"/>
<path d="M7080 19443 c-251 -5 -751 -24 -980 -38 -1534 -94 -2428 -327 -3055
-794 -121 -90 -389 -356 -505 -501 -568 -711 -763 -1655 -821 -3990 -13 -523
-6 -2400 10 -2795 68 -1636 194 -2436 484 -3065 202 -439 630 -913 1061 -1174
619 -376 1541 -574 3006 -646 848 -42 2376 -41 3205 0 1629 82 2568 315 3204
793 175 132 450 415 598 614 454 615 648 1508 723 3338 41 1009 36 2741 -10
3730 -68 1437 -235 2287 -560 2855 -206 357 -558 732 -894 949 -820 530 -2167
738 -4731 729 -335 -1 -666 -3 -735 -5z m1370 -2597 c371 -52 554 -154 655
-367 149 -317 201 -825 225 -2229 18 -1032 8 -2564 -20 -3240 -41 -969 -124
-1386 -312 -1566 -175 -168 -451 -224 -1107 -224 -429 0 -671 22 -860 77 -168
48 -260 116 -339 251 -184 310 -242 750 -273 2051 -13 567 -6 2906 10 3296 42
1009 98 1357 263 1632 59 98 135 171 221 212 124 59 310 100 547 120 170 15
854 6 990 -13z"/>
<path d="M20555 19443 c-1203 -27 -2178 -137 -2860 -324 -1270 -347 -1870
-990 -2019 -2164 -29 -229 -36 -391 -36 -839 0 -1145 82 -1699 322 -2176 253
-503 642 -810 1420 -1121 497 -198 935 -328 2198 -649 1357 -345 1945 -531
2419 -766 344 -169 514 -314 621 -529 88 -177 113 -351 99 -694 -14 -363 -61
-563 -170 -726 -129 -193 -334 -293 -694 -340 -264 -34 -717 -41 -1025 -14
-522 45 -811 206 -934 520 -61 155 -82 280 -98 571 -14 260 -3 470 30 576 l20
62 -1973 0 -1973 0 -30 -84 c-85 -234 -140 -525 -179 -956 -22 -251 -26 -965
-5 -1105 99 -659 383 -1116 912 -1469 656 -438 1714 -692 3225 -776 569 -31
1644 -41 2255 -20 2236 77 3495 428 4220 1176 501 517 750 1212 811 2259 13
228 6 953 -11 1135 -53 571 -150 972 -315 1300 -339 675 -982 1080 -2329 1466
-144 41 -650 172 -1125 290 -945 235 -1172 294 -1606 419 -627 180 -981 300
-1204 406 -403 192 -566 423 -601 852 -18 217 5 518 51 659 84 256 251 392
568 463 220 50 624 73 983 55 368 -17 571 -56 748 -142 168 -81 275 -203 333
-379 47 -139 52 -199 52 -569 0 -195 -4 -385 -8 -422 l-9 -68 1956 0 1955 0
25 43 c91 155 164 423 196 722 17 158 24 719 11 885 -42 533 -176 927 -426
1258 -660 875 -2157 1230 -5135 1220 -305 -1 -604 -3 -665 -5z"/>
<path d="M28760 12925 l0 -6306 3658 4 c2411 3 3742 8 3907 15 1055 46 1601
101 2180 217 642 129 1112 318 1484 598 111 83 371 334 475 457 521 621 707
1440 787 3465 16 424 23 2129 10 2680 -49 2092 -209 3016 -635 3670 -129 198
-402 495 -586 637 -623 482 -1541 726 -3090 823 -614 38 -620 38 -4437 42
l-3753 4 0 -6306z m6620 3655 c384 -25 588 -77 728 -189 280 -223 353 -1033
339 -3766 -7 -1233 -20 -1672 -63 -2115 -36 -377 -80 -564 -171 -742 -121
-236 -335 -327 -844 -358 -90 -5 -550 -10 -1021 -10 l-858 0 0 3595 0 3595
863 0 c483 0 934 -5 1027 -10z"/>
</g>
</svg>
